<svg width="79" height="56" viewBox="0 0 79 56" fill="none" xmlns="http://www.w3.org/2000/svg">
<path d="M5.18814 50.1845C5.18814 49.9778 5.14209 49.7865 5.04999 49.6108C4.96301 49.4298 4.78137 49.267 4.50508 49.1223C4.23391 48.9724 3.82459 48.8431 3.27712 48.7346C2.81664 48.6364 2.39964 48.5201 2.02614 48.3857C1.65775 48.2513 1.34308 48.0884 1.08214 47.8972C0.826316 47.7059 0.62933 47.481 0.491185 47.2226C0.353039 46.9641 0.283966 46.6617 0.283966 46.3154C0.283966 45.9846 0.355597 45.6718 0.498859 45.3772C0.647238 45.0825 0.854456 44.8215 1.12051 44.594C1.39169 44.3666 1.71659 44.1882 2.09521 44.059C2.47383 43.9298 2.89594 43.8652 3.36154 43.8652C4.02669 43.8652 4.59462 43.9841 5.06534 44.2218C5.53606 44.4596 5.89677 44.7775 6.14748 45.1756C6.39819 45.5684 6.52355 46.0052 6.52355 46.486H5.10371C5.10371 46.2534 5.03464 46.0285 4.8965 45.8114C4.76347 45.5891 4.56648 45.4056 4.30554 45.2609C4.04971 45.1161 3.73505 45.0438 3.36154 45.0438C2.96757 45.0438 2.64779 45.1058 2.4022 45.2298C2.16172 45.3487 1.9852 45.5012 1.87264 45.6873C1.76519 45.8734 1.71147 46.0698 1.71147 46.2766C1.71147 46.4317 1.73705 46.5713 1.78822 46.6953C1.8445 46.8142 1.94171 46.9254 2.07986 47.0287C2.21801 47.127 2.41243 47.22 2.66314 47.3079C2.91385 47.3958 3.23363 47.4836 3.62249 47.5715C4.30298 47.7266 4.86324 47.9127 5.30326 48.1298C5.74328 48.3469 6.07073 48.6131 6.28563 48.9284C6.50052 49.2438 6.60797 49.6263 6.60797 50.076C6.60797 50.443 6.53122 50.779 6.37772 51.084C6.22935 51.389 6.01189 51.6526 5.72537 51.8749C5.44396 52.092 5.10627 52.2626 4.7123 52.3866C4.32345 52.5055 3.88599 52.565 3.39992 52.565C2.66826 52.565 2.04916 52.4332 1.54263 52.1695C1.03609 51.9059 0.652355 51.5647 0.391413 51.146C0.130471 50.7273 0 50.2854 0 49.8201H1.42751C1.44797 50.213 1.56053 50.5257 1.76519 50.7583C1.96985 50.9858 2.22056 51.1486 2.51732 51.2468C2.81408 51.3399 3.10828 51.3864 3.39992 51.3864C3.78877 51.3864 4.11367 51.3347 4.37461 51.2313C4.64067 51.1279 4.84277 50.9858 4.98092 50.8049C5.11906 50.6239 5.18814 50.4172 5.18814 50.1845Z" fill="white"/>
<path d="M9.89276 40.5V52.4099H8.47293V40.5H9.89276ZM9.55508 47.8972L8.96412 47.8739C8.96923 47.3001 9.05366 46.7703 9.21739 46.2844C9.38111 45.7933 9.61136 45.3668 9.90811 45.005C10.2049 44.6431 10.5579 44.364 10.9672 44.1676C11.3817 43.966 11.8396 43.8652 12.341 43.8652C12.7503 43.8652 13.1187 43.922 13.4462 44.0358C13.7736 44.1443 14.0525 44.3201 14.2827 44.563C14.5181 44.806 14.6972 45.1213 14.82 45.509C14.9428 45.8915 15.0042 46.3593 15.0042 46.9124V52.4099H13.5766V46.8969C13.5766 46.4575 13.5127 46.106 13.3848 45.8424C13.2569 45.5736 13.0701 45.3798 12.8245 45.2609C12.5789 45.1368 12.2771 45.0748 11.9189 45.0748C11.5659 45.0748 11.2435 45.1497 10.9519 45.2996C10.6654 45.4495 10.4172 45.6563 10.2074 45.9199C10.0028 46.1836 9.8416 46.486 9.72392 46.8271C9.61136 47.1631 9.55508 47.5198 9.55508 47.8972Z" fill="white"/>
<path d="M16.754 48.3081V48.1298C16.754 47.525 16.841 46.9641 17.0149 46.4472C17.1889 45.9251 17.4396 45.4728 17.7671 45.0903C18.0945 44.7026 18.4911 44.4028 18.9567 44.1908C19.4223 43.9737 19.9441 43.8652 20.5223 43.8652C21.1056 43.8652 21.63 43.9737 22.0956 44.1908C22.5663 44.4028 22.9654 44.7026 23.2929 45.0903C23.6255 45.4728 23.8787 45.9251 24.0527 46.4472C24.2267 46.9641 24.3136 47.525 24.3136 48.1298V48.3081C24.3136 48.9129 24.2267 49.4738 24.0527 49.9907C23.8787 50.5076 23.6255 50.9599 23.2929 51.3476C22.9654 51.7301 22.5689 52.03 22.1033 52.2471C21.6428 52.459 21.1209 52.565 20.5377 52.565C19.9544 52.565 19.4299 52.459 18.9643 52.2471C18.4987 52.03 18.0996 51.7301 17.7671 51.3476C17.4396 50.9599 17.1889 50.5076 17.0149 49.9907C16.841 49.4738 16.754 48.9129 16.754 48.3081ZM18.1738 48.1298V48.3081C18.1738 48.7268 18.2224 49.1223 18.3197 49.4945C18.4169 49.8615 18.5627 50.1871 18.7571 50.4714C18.9567 50.7557 19.2048 50.9806 19.5016 51.146C19.7983 51.3063 20.1437 51.3864 20.5377 51.3864C20.9265 51.3864 21.2668 51.3063 21.5584 51.146C21.8552 50.9806 22.1007 50.7557 22.2952 50.4714C22.4896 50.1871 22.6354 49.8615 22.7326 49.4945C22.835 49.1223 22.8861 48.7268 22.8861 48.3081V48.1298C22.8861 47.7162 22.835 47.326 22.7326 46.959C22.6354 46.5868 22.487 46.2585 22.2875 45.9742C22.0931 45.6847 21.8475 45.4573 21.5507 45.2919C21.2591 45.1265 20.9163 45.0438 20.5223 45.0438C20.1335 45.0438 19.7906 45.1265 19.4939 45.2919C19.2022 45.4573 18.9567 45.6847 18.7571 45.9742C18.5627 46.2585 18.4169 46.5868 18.3197 46.959C18.2224 47.326 18.1738 47.7162 18.1738 48.1298Z" fill="white"/>
<path d="M27.514 45.633V55.6355H26.0865V44.0202H27.3912L27.514 45.633ZM33.1089 48.1453V48.3081C33.1089 48.9181 33.0373 49.4841 32.894 50.0062C32.7508 50.5231 32.541 50.9729 32.2647 51.3554C31.9935 51.7379 31.6584 52.0351 31.2593 52.2471C30.8602 52.459 30.4023 52.565 29.8855 52.565C29.3585 52.565 28.8929 52.4771 28.4887 52.3013C28.0845 52.1256 27.7417 51.8697 27.4603 51.5337C27.1789 51.1977 26.9538 50.7945 26.7849 50.3241C26.6212 49.8537 26.5086 49.3239 26.4472 48.7346V47.8662C26.5086 47.2458 26.6237 46.6902 26.7926 46.1991C26.9614 45.708 27.184 45.2893 27.4603 44.943C27.7417 44.5914 28.0819 44.3252 28.481 44.1443C28.8801 43.9582 29.3406 43.8652 29.8625 43.8652C30.3844 43.8652 30.8474 43.9686 31.2516 44.1753C31.6558 44.3769 31.9961 44.6664 32.2724 45.0438C32.5487 45.4211 32.7559 45.8734 32.894 46.4007C33.0373 46.9228 33.1089 47.5043 33.1089 48.1453ZM31.6814 48.3081V48.1453C31.6814 47.7266 31.6379 47.3337 31.5509 46.9667C31.464 46.5945 31.3284 46.2689 31.1442 45.9897C30.9651 45.7054 30.7349 45.4831 30.4534 45.3229C30.172 45.1575 29.8369 45.0748 29.448 45.0748C29.0899 45.0748 28.7778 45.1368 28.5117 45.2609C28.2508 45.3849 28.0282 45.5529 27.844 45.7649C27.6598 45.9716 27.5089 46.2094 27.3912 46.4782C27.2787 46.7418 27.1942 47.0158 27.1379 47.3001V49.3084C27.2403 49.6702 27.3835 50.0114 27.5677 50.3319C27.7519 50.6472 27.9975 50.9031 28.3045 51.0995C28.6115 51.2908 28.9978 51.3864 29.4634 51.3864C29.8471 51.3864 30.1772 51.3063 30.4534 51.146C30.7349 50.9806 30.9651 50.7557 31.1442 50.4714C31.3284 50.1871 31.464 49.8615 31.5509 49.4945C31.6379 49.1223 31.6814 48.7268 31.6814 48.3081Z" fill="white"/>
<path d="M9.7569 10.8104V29H6.02155V10.8104H9.7569ZM15.3537 10.8104V13.7462H0.512206V10.8104H15.3537ZM21.1129 19.7803V22.6037H14.0544V19.7803H21.1129ZM33.8056 24.2402C33.8056 23.9154 33.7556 23.6239 33.6557 23.3657C33.5641 23.0992 33.3892 22.8577 33.131 22.6411C32.8728 22.4163 32.5105 22.1956 32.0441 21.979C31.5777 21.7625 30.9739 21.5376 30.2327 21.3044C29.4081 21.0379 28.6252 20.7381 27.884 20.4049C27.1511 20.0718 26.5015 19.6845 25.9351 19.2431C25.3771 18.7934 24.9357 18.2728 24.6109 17.6815C24.2944 17.0902 24.1362 16.4031 24.1362 15.6202C24.1362 14.8623 24.3027 14.1752 24.6359 13.5589C24.969 12.9342 25.4354 12.4012 26.0351 11.9598C26.6347 11.51 27.3427 11.1644 28.1588 10.9229C28.9834 10.6813 29.887 10.5606 30.8698 10.5606C32.2107 10.5606 33.3809 10.8021 34.3803 11.2852C35.3797 11.7682 36.1543 12.4303 36.7039 13.2715C37.262 14.1127 37.541 15.0747 37.541 16.1574H33.8181C33.8181 15.6243 33.7057 15.1579 33.4808 14.7582C33.2643 14.3501 32.9311 14.0294 32.4814 13.7962C32.04 13.563 31.4819 13.4464 30.8073 13.4464C30.1577 13.4464 29.6163 13.5464 29.1833 13.7462C28.7502 13.9378 28.4254 14.2002 28.2088 14.5333C27.9923 14.8581 27.884 15.2246 27.884 15.6327C27.884 15.9408 27.959 16.2198 28.1089 16.4697C28.2671 16.7195 28.5003 16.9527 28.8085 17.1693C29.1166 17.3858 29.4956 17.5899 29.9453 17.7814C30.3951 17.973 30.9156 18.1604 31.5069 18.3436C32.498 18.6434 33.3684 18.9807 34.1179 19.3555C34.8758 19.7303 35.5088 20.1509 36.0168 20.6173C36.5249 21.0837 36.908 21.6126 37.1662 22.2039C37.4244 22.7952 37.5535 23.4657 37.5535 24.2152C37.5535 25.0065 37.3994 25.7144 37.0912 26.339C36.7831 26.9637 36.3375 27.4925 35.7545 27.9256C35.1715 28.3587 34.4761 28.6877 33.6682 28.9126C32.8603 29.1374 31.9567 29.2499 30.9572 29.2499C30.0578 29.2499 29.1708 29.1333 28.2963 28.9001C27.4218 28.6585 26.6264 28.2962 25.9101 27.8132C25.2022 27.3301 24.6359 26.7138 24.2111 25.9642C23.7864 25.2147 23.574 24.3277 23.574 23.3033H27.3343C27.3343 23.8696 27.4218 24.3485 27.5967 24.7399C27.7716 25.1314 28.0173 25.4479 28.3337 25.6894C28.6586 25.9309 29.0417 26.1058 29.4831 26.2141C29.9328 26.3224 30.4242 26.3765 30.9572 26.3765C31.6069 26.3765 32.1399 26.2849 32.5563 26.1017C32.9811 25.9184 33.2934 25.6644 33.4933 25.3396C33.7015 25.0148 33.8056 24.6483 33.8056 24.2402ZM43.3876 9.81101V29H39.7897V9.81101H43.3876ZM42.8754 21.7666H41.8885C41.8968 20.8255 42.0217 19.9594 42.2633 19.1681C42.5048 18.3686 42.8504 17.6773 43.3002 17.0943C43.7499 16.503 44.2871 16.0449 44.9117 15.7201C45.5447 15.3953 46.2443 15.2329 47.0105 15.2329C47.6768 15.2329 48.2806 15.3287 48.822 15.5202C49.3717 15.7035 49.8422 16.0033 50.2337 16.4197C50.6335 16.8278 50.9416 17.365 51.1582 18.0313C51.3747 18.6976 51.483 19.5054 51.483 20.4549V29H47.86V20.4299C47.86 19.8303 47.7726 19.3597 47.5977 19.0182C47.4311 18.6684 47.1854 18.4227 46.8606 18.2811C46.5441 18.1312 46.1527 18.0563 45.6863 18.0563C45.1699 18.0563 44.7285 18.1521 44.3621 18.3436C44.0039 18.5352 43.7166 18.8017 43.5 19.1432C43.2835 19.4763 43.1253 19.8677 43.0253 20.3175C42.9254 20.7672 42.8754 21.2503 42.8754 21.7666ZM58.0167 15.4828V29H54.4063V15.4828H58.0167ZM54.1814 11.9598C54.1814 11.4351 54.3646 11.002 54.7311 10.6605C55.0976 10.319 55.5889 10.1483 56.2053 10.1483C56.8132 10.1483 57.3005 10.319 57.6669 10.6605C58.0417 11.002 58.2291 11.4351 58.2291 11.9598C58.2291 12.4845 58.0417 12.9176 57.6669 13.259C57.3005 13.6005 56.8132 13.7712 56.2053 13.7712C55.5889 13.7712 55.0976 13.6005 54.7311 13.259C54.3646 12.9176 54.1814 12.4845 54.1814 11.9598ZM64.588 18.4311V29H60.99V15.4828H64.3756L64.588 18.4311ZM68.6606 15.3953L68.5982 18.7309C68.4233 18.7059 68.2109 18.6851 67.961 18.6684C67.7195 18.6434 67.4988 18.6309 67.2989 18.6309C66.7909 18.6309 66.3494 18.6976 65.9747 18.8308C65.6082 18.9558 65.3 19.1432 65.0502 19.393C64.8087 19.6429 64.6254 19.9469 64.5005 20.305C64.3839 20.6631 64.3173 21.0712 64.3006 21.5293L63.576 21.3044C63.576 20.4299 63.6635 19.6262 63.8384 18.8933C64.0133 18.1521 64.2673 17.5066 64.6004 16.9569C64.9419 16.4072 65.3583 15.9825 65.8497 15.6826C66.3411 15.3828 66.9033 15.2329 67.5363 15.2329C67.7361 15.2329 67.9402 15.2496 68.1484 15.2829C68.3566 15.3079 68.5274 15.3453 68.6606 15.3953ZM77.6055 15.4828V18.0313H69.735V15.4828H77.6055ZM71.6839 12.1472H75.2818V24.9273C75.2818 25.3188 75.3318 25.6186 75.4317 25.8268C75.54 26.035 75.6983 26.1808 75.9065 26.2641C76.1147 26.339 76.377 26.3765 76.6935 26.3765C76.9184 26.3765 77.1183 26.3682 77.2932 26.3515C77.4764 26.3265 77.6305 26.3015 77.7554 26.2766L77.7679 28.925C77.4597 29.025 77.1266 29.1041 76.7685 29.1624C76.4103 29.2207 76.0147 29.2499 75.5817 29.2499C74.7904 29.2499 74.0992 29.1208 73.5078 28.8626C72.9248 28.5961 72.4751 28.1713 72.1586 27.5883C71.8421 27.0053 71.6839 26.2391 71.6839 25.2896V12.1472Z" fill="#E1E1E6"/>
</svg>
